<svg xmlns="http://www.w3.org/2000/svg" viewBox="0 0 900 600">
  <rect width="900" height="600" fill="#006C35"/>
  <g fill="#fff" transform="translate(165,250)">
    <path d="M0,0 c5.7,0 10.3,4.6 10.3,10.3 v10.3 h-20.6 v-10.3 C-10.3,4.6 -5.7,0 0,0 z"/>
    <path d="M140,0 v10.3 c0,5.7 -4.6,10.3 -10.3,10.3 H10.3 C4.6,20.6 0,16 0,10.3 v10.3 c0,11.4 9.2,20.6 20.6,20.6 h98.8 c11.4,0 20.6,-9.2 20.6,-20.6 V0"/>
    <path d="M165,0 v20.6 c0,5.7 4.6,10.3 10.3,10.3 s10.3,-4.6 10.3,-10.3 V0"/>
    <path d="M195,0 v20.6 c0,5.7 4.6,10.3 10.3,10.3 s10.3,-4.6 10.3,-10.3 V0"/>
    <path d="M225,0 c5.7,0 10.3,4.6 10.3,10.3 s-4.6,10.3 -10.3,10.3 h10.3 c5.7,0 10.3,4.6 10.3,10.3 V41.2"/>
    <path d="M275,0 v20.6 c0,5.7 -4.6,10.3 -10.3,10.3 S254.4,26.3 254.4,20.6 V0"/>
    <path d="M295,0 c0,11.4 9.2,20.6 20.6,20.6 S336.2,11.4 336.2,0"/>
    <path d="M315.6,20.6 v20.6"/>
    <path d="M355,0 v30.9 h10.3 v-10.3 h10.3"/>
    <path d="M430,10.3 h-30.9 v20.6 h30.9 v-20.6 h-10.3"/>
    <path d="M409.4,0 v10.3"/>
    <g transform="translate(0,82.5)">
      <circle r="30.9"/>
      <path d="M415,0 h50 l-60,-40 v125 l35,-35 h-50 l35,-40 h50 z" fill="#006C35"/>
    </g>
  </g>
</svg>
